<?xml version="1.0" encoding="UTF-8" standalone="no"?><!DOCTYPE svg PUBLIC "-//W3C//DTD SVG 1.1//EN" "http://www.w3.org/Graphics/SVG/1.1/DTD/svg11.dtd"><!-- Generated by graphviz version 2.40.1 (20161225.0304)
 --><!-- Title: %0 Pages: 1 --><svg xmlns="http://www.w3.org/2000/svg" xmlns:xlink="http://www.w3.org/1999/xlink" width="1276pt" height="548pt" viewBox="0.00 0.00 1275.56 548.00">
<g id="graph0" class="graph" transform="scale(1 1) rotate(0) translate(4 544)">
<title>%0</title>
<polygon fill="#ffffff" stroke="transparent" points="-4,4 -4,-544 1271.5593,-544 1271.5593,4 -4,4"/>
<!-- [root] azurerm_network_interface.test (expand) -->
<g id="node1" class="node">
<title>[root] azurerm_network_interface.test (expand)</title>
<polygon fill="none" stroke="#000000" points="403.8742,-324 210.6151,-324 210.6151,-288 403.8742,-288 403.8742,-324"/>
<text text-anchor="middle" x="307.2447" y="-301.8" font-family="Times,serif" font-size="14.00" fill="#000000">azurerm_network_interface.test</text>
</g>
<!-- [root] azurerm_subnet.test (expand) -->
<g id="node7" class="node">
<title>[root] azurerm_subnet.test (expand)</title>
<polygon fill="none" stroke="#000000" points="413.591,-252 284.8984,-252 284.8984,-216 413.591,-216 413.591,-252"/>
<text text-anchor="middle" x="349.2447" y="-229.8" font-family="Times,serif" font-size="14.00" fill="#000000">azurerm_subnet.test</text>
</g>
<!-- [root] azurerm_network_interface.test (expand)&#45;&gt;[root] azurerm_subnet.test (expand) -->
<g id="edge1" class="edge">
<title>[root] azurerm_network_interface.test (expand)-&gt;[root] azurerm_subnet.test (expand)</title>
<path fill="none" stroke="#000000" d="M317.8431,-287.8314C322.5324,-279.7925 328.1475,-270.1666 333.3245,-261.2918"/>
<polygon fill="#000000" stroke="#000000" points="336.4881,-262.8146 338.5036,-252.4133 330.4416,-259.2875 336.4881,-262.8146"/>
</g>
<!-- [root] azurerm_network_interface.test2 (expand) -->
<g id="node2" class="node">
<title>[root] azurerm_network_interface.test2 (expand)</title>
<polygon fill="none" stroke="#000000" points="622.3742,-324 422.1151,-324 422.1151,-288 622.3742,-288 622.3742,-324"/>
<text text-anchor="middle" x="522.2447" y="-301.8" font-family="Times,serif" font-size="14.00" fill="#000000">azurerm_network_interface.test2</text>
</g>
<!-- [root] azurerm_subnet.test2 (expand) -->
<g id="node8" class="node">
<title>[root] azurerm_subnet.test2 (expand)</title>
<polygon fill="none" stroke="#000000" points="599.0909,-252 463.3984,-252 463.3984,-216 599.0909,-216 599.0909,-252"/>
<text text-anchor="middle" x="531.2447" y="-229.8" font-family="Times,serif" font-size="14.00" fill="#000000">azurerm_subnet.test2</text>
</g>
<!-- [root] azurerm_network_interface.test2 (expand)&#45;&gt;[root] azurerm_subnet.test2 (expand) -->
<g id="edge2" class="edge">
<title>[root] azurerm_network_interface.test2 (expand)-&gt;[root] azurerm_subnet.test2 (expand)</title>
<path fill="none" stroke="#000000" d="M524.5158,-287.8314C525.4783,-280.131 526.6229,-270.9743 527.6926,-262.4166"/>
<polygon fill="#000000" stroke="#000000" points="531.1756,-262.7702 528.943,-252.4133 524.2296,-261.9019 531.1756,-262.7702"/>
</g>
<!-- [root] azurerm_network_interface.test3 (expand) -->
<g id="node3" class="node">
<title>[root] azurerm_network_interface.test3 (expand)</title>
<polygon fill="none" stroke="#000000" points="1267.3742,-324 1067.1151,-324 1067.1151,-288 1267.3742,-288 1267.3742,-324"/>
<text text-anchor="middle" x="1167.2447" y="-301.8" font-family="Times,serif" font-size="14.00" fill="#000000">azurerm_network_interface.test3</text>
</g>
<!-- [root] azurerm_subnet.test3 (expand) -->
<g id="node9" class="node">
<title>[root] azurerm_subnet.test3 (expand)</title>
<polygon fill="none" stroke="#000000" points="788.0909,-252 652.3984,-252 652.3984,-216 788.0909,-216 788.0909,-252"/>
<text text-anchor="middle" x="720.2447" y="-229.8" font-family="Times,serif" font-size="14.00" fill="#000000">azurerm_subnet.test3</text>
</g>
<!-- [root] azurerm_network_interface.test3 (expand)&#45;&gt;[root] azurerm_subnet.test3 (expand) -->
<g id="edge3" class="edge">
<title>[root] azurerm_network_interface.test3 (expand)-&gt;[root] azurerm_subnet.test3 (expand)</title>
<path fill="none" stroke="#000000" d="M1066.8737,-289.4047C1063.9656,-288.9304 1061.0844,-288.4613 1058.2447,-288 969.2568,-273.544 867.0348,-257.2569 798.5173,-246.3861"/>
<polygon fill="#000000" stroke="#000000" points="798.663,-242.8655 788.2382,-244.7557 797.5664,-249.7791 798.663,-242.8655"/>
</g>
<!-- [root] azurerm_resource_group.test (expand) -->
<g id="node4" class="node">
<title>[root] azurerm_resource_group.test (expand)</title>
<polygon fill="none" stroke="#000000" points="744.6109,-108 565.8784,-108 565.8784,-72 744.6109,-72 744.6109,-108"/>
<text text-anchor="middle" x="655.2447" y="-85.8" font-family="Times,serif" font-size="14.00" fill="#000000">azurerm_resource_group.test</text>
</g>
<!-- [root] provider[&quot;registry.terraform.io/hashicorp/azurerm&quot;] -->
<g id="node14" class="node">
<title>[root] provider["registry.terraform.io/hashicorp/azurerm"]</title>
<polygon fill="none" stroke="#000000" points="298.2447,-36 -.2449,-18 298.2447,0 596.7343,-18 298.2447,-36"/>
<text text-anchor="middle" x="298.2447" y="-13.8" font-family="Times,serif" font-size="14.00" fill="#000000">provider["registry.terraform.io/hashicorp/azurerm"]</text>
</g>
<!-- [root] azurerm_resource_group.test (expand)&#45;&gt;[root] provider[&quot;registry.terraform.io/hashicorp/azurerm&quot;] -->
<g id="edge4" class="edge">
<title>[root] azurerm_resource_group.test (expand)-&gt;[root] provider["registry.terraform.io/hashicorp/azurerm"]</title>
<path fill="none" stroke="#000000" d="M565.6193,-71.9243C507.5556,-60.214 432.6474,-45.1064 376.8967,-33.8626"/>
<polygon fill="#000000" stroke="#000000" points="377.5642,-30.4268 367.0696,-31.8807 376.1803,-37.2887 377.5642,-30.4268"/>
</g>
<!-- [root] var.location -->
<g id="node15" class="node">
<title>[root] var.location</title>
<polygon fill="none" stroke="#000000" points="690.7223,-36 613.7671,-36 613.7671,0 696.7223,0 696.7223,-30 690.7223,-36"/>
<polyline fill="none" stroke="#000000" points="690.7223,-36 690.7223,-30 "/>
<polyline fill="none" stroke="#000000" points="696.7223,-30 690.7223,-30 "/>
<text text-anchor="middle" x="655.2447" y="-13.8" font-family="Times,serif" font-size="14.00" fill="#000000">var.location</text>
</g>
<!-- [root] azurerm_resource_group.test (expand)&#45;&gt;[root] var.location -->
<g id="edge5" class="edge">
<title>[root] azurerm_resource_group.test (expand)-&gt;[root] var.location</title>
<path fill="none" stroke="#000000" d="M655.2447,-71.8314C655.2447,-64.131 655.2447,-54.9743 655.2447,-46.4166"/>
<polygon fill="#000000" stroke="#000000" points="658.7448,-46.4132 655.2447,-36.4133 651.7448,-46.4133 658.7448,-46.4132"/>
</g>
<!-- [root] var.name -->
<g id="node16" class="node">
<title>[root] var.name</title>
<polygon fill="none" stroke="#000000" points="775.9404,-36 714.549,-36 714.549,0 781.9404,0 781.9404,-30 775.9404,-36"/>
<polyline fill="none" stroke="#000000" points="775.9404,-36 775.9404,-30 "/>
<polyline fill="none" stroke="#000000" points="781.9404,-30 775.9404,-30 "/>
<text text-anchor="middle" x="748.2447" y="-13.8" font-family="Times,serif" font-size="14.00" fill="#000000">var.name</text>
</g>
<!-- [root] azurerm_resource_group.test (expand)&#45;&gt;[root] var.name -->
<g id="edge6" class="edge">
<title>[root] azurerm_resource_group.test (expand)-&gt;[root] var.name</title>
<path fill="none" stroke="#000000" d="M678.7125,-71.8314C690.2774,-62.8779 704.3851,-51.9558 716.863,-42.2955"/>
<polygon fill="#000000" stroke="#000000" points="719.0197,-45.0521 724.7844,-36.1628 714.7345,-39.5171 719.0197,-45.0521"/>
</g>
<!-- [root] azurerm_storage_account.test (expand) -->
<g id="node5" class="node">
<title>[root] azurerm_storage_account.test (expand)</title>
<polygon fill="none" stroke="#000000" points="858.5002,-180 675.9891,-180 675.9891,-144 858.5002,-144 858.5002,-180"/>
<text text-anchor="middle" x="767.2447" y="-157.8" font-family="Times,serif" font-size="14.00" fill="#000000">azurerm_storage_account.test</text>
</g>
<!-- [root] azurerm_storage_account.test (expand)&#45;&gt;[root] azurerm_resource_group.test (expand) -->
<g id="edge7" class="edge">
<title>[root] azurerm_storage_account.test (expand)-&gt;[root] azurerm_resource_group.test (expand)</title>
<path fill="none" stroke="#000000" d="M738.9824,-143.8314C724.7895,-134.7074 707.4165,-123.539 692.1811,-113.7449"/>
<polygon fill="#000000" stroke="#000000" points="693.8024,-110.6263 683.498,-108.1628 690.0171,-116.5146 693.8024,-110.6263"/>
</g>
<!-- [root] azurerm_storage_container.test (expand) -->
<g id="node6" class="node">
<title>[root] azurerm_storage_container.test (expand)</title>
<polygon fill="none" stroke="#000000" points="940.0515,-324 748.4378,-324 748.4378,-288 940.0515,-288 940.0515,-324"/>
<text text-anchor="middle" x="844.2447" y="-301.8" font-family="Times,serif" font-size="14.00" fill="#000000">azurerm_storage_container.test</text>
</g>
<!-- [root] azurerm_storage_container.test (expand)&#45;&gt;[root] azurerm_storage_account.test (expand) -->
<g id="edge8" class="edge">
<title>[root] azurerm_storage_container.test (expand)-&gt;[root] azurerm_storage_account.test (expand)</title>
<path fill="none" stroke="#000000" d="M835.0172,-287.9983C825.6371,-269.7782 810.622,-240.8293 797.2447,-216 792.5378,-207.2637 787.3141,-197.7879 782.5622,-189.2487"/>
<polygon fill="#000000" stroke="#000000" points="785.569,-187.4543 777.6378,-180.4296 779.4572,-190.867 785.569,-187.4543"/>
</g>
<!-- [root] azurerm_virtual_network.test (expand) -->
<g id="node13" class="node">
<title>[root] azurerm_virtual_network.test (expand)</title>
<polygon fill="none" stroke="#000000" points="645.9602,-180 464.5292,-180 464.5292,-144 645.9602,-144 645.9602,-180"/>
<text text-anchor="middle" x="555.2447" y="-157.8" font-family="Times,serif" font-size="14.00" fill="#000000">azurerm_virtual_network.test</text>
</g>
<!-- [root] azurerm_subnet.test (expand)&#45;&gt;[root] azurerm_virtual_network.test (expand) -->
<g id="edge9" class="edge">
<title>[root] azurerm_subnet.test (expand)-&gt;[root] azurerm_virtual_network.test (expand)</title>
<path fill="none" stroke="#000000" d="M400.9613,-215.9243C429.1227,-206.0815 464.1509,-193.8386 493.7099,-183.5073"/>
<polygon fill="#000000" stroke="#000000" points="495.2216,-186.6866 503.5068,-180.0831 492.912,-180.0786 495.2216,-186.6866"/>
</g>
<!-- [root] azurerm_subnet.test2 (expand)&#45;&gt;[root] azurerm_virtual_network.test (expand) -->
<g id="edge10" class="edge">
<title>[root] azurerm_subnet.test2 (expand)-&gt;[root] azurerm_virtual_network.test (expand)</title>
<path fill="none" stroke="#000000" d="M537.3009,-215.8314C539.8959,-208.0463 542.987,-198.7729 545.8664,-190.1347"/>
<polygon fill="#000000" stroke="#000000" points="549.265,-191.0069 549.1069,-180.4133 542.6242,-188.7933 549.265,-191.0069"/>
</g>
<!-- [root] azurerm_subnet.test3 (expand)&#45;&gt;[root] azurerm_virtual_network.test (expand) -->
<g id="edge11" class="edge">
<title>[root] azurerm_subnet.test3 (expand)-&gt;[root] azurerm_virtual_network.test (expand)</title>
<path fill="none" stroke="#000000" d="M678.6082,-215.8314C656.5404,-206.2018 629.254,-194.295 605.959,-184.1299"/>
<polygon fill="#000000" stroke="#000000" points="607.147,-180.8296 596.5817,-180.038 604.3473,-187.2454 607.147,-180.8296"/>
</g>
<!-- [root] azurerm_virtual_machine.test (expand) -->
<g id="node10" class="node">
<title>[root] azurerm_virtual_machine.test (expand)</title>
<polygon fill="none" stroke="#000000" points="706.5128,-396 523.9765,-396 523.9765,-360 706.5128,-360 706.5128,-396"/>
<text text-anchor="middle" x="615.2447" y="-373.8" font-family="Times,serif" font-size="14.00" fill="#000000">azurerm_virtual_machine.test</text>
</g>
<!-- [root] azurerm_virtual_machine.test (expand)&#45;&gt;[root] azurerm_network_interface.test (expand) -->
<g id="edge12" class="edge">
<title>[root] azurerm_virtual_machine.test (expand)-&gt;[root] azurerm_network_interface.test (expand)</title>
<path fill="none" stroke="#000000" d="M537.9208,-359.9243C494.1764,-349.6983 439.3501,-336.8818 394.1251,-326.3097"/>
<polygon fill="#000000" stroke="#000000" points="394.8674,-322.8889 384.3332,-324.0207 393.2739,-329.7052 394.8674,-322.8889"/>
</g>
<!-- [root] azurerm_virtual_machine.test (expand)&#45;&gt;[root] azurerm_storage_container.test (expand) -->
<g id="edge13" class="edge">
<title>[root] azurerm_virtual_machine.test (expand)-&gt;[root] azurerm_storage_container.test (expand)</title>
<path fill="none" stroke="#000000" d="M672.7355,-359.9243C704.4494,-349.9531 743.9974,-337.5188 777.1222,-327.104"/>
<polygon fill="#000000" stroke="#000000" points="778.2404,-330.4214 786.7302,-324.0831 776.1409,-323.7437 778.2404,-330.4214"/>
</g>
<!-- [root] var.password -->
<g id="node17" class="node">
<title>[root] var.password</title>
<polygon fill="none" stroke="#000000" points="724.4912,-324 639.9981,-324 639.9981,-288 730.4912,-288 730.4912,-318 724.4912,-324"/>
<polyline fill="none" stroke="#000000" points="724.4912,-324 724.4912,-318 "/>
<polyline fill="none" stroke="#000000" points="730.4912,-318 724.4912,-318 "/>
<text text-anchor="middle" x="685.2447" y="-301.8" font-family="Times,serif" font-size="14.00" fill="#000000">var.password</text>
</g>
<!-- [root] azurerm_virtual_machine.test (expand)&#45;&gt;[root] var.password -->
<g id="edge14" class="edge">
<title>[root] azurerm_virtual_machine.test (expand)-&gt;[root] var.password</title>
<path fill="none" stroke="#000000" d="M632.9086,-359.8314C641.2178,-351.2848 651.271,-340.9443 660.3365,-331.6198"/>
<polygon fill="#000000" stroke="#000000" points="662.8816,-334.023 667.3429,-324.4133 657.8626,-329.1435 662.8816,-334.023"/>
</g>
<!-- [root] var.username -->
<g id="node18" class="node">
<title>[root] var.username</title>
<polygon fill="none" stroke="#000000" points="1042.7595,-324 957.7299,-324 957.7299,-288 1048.7595,-288 1048.7595,-318 1042.7595,-324"/>
<polyline fill="none" stroke="#000000" points="1042.7595,-324 1042.7595,-318 "/>
<polyline fill="none" stroke="#000000" points="1048.7595,-318 1042.7595,-318 "/>
<text text-anchor="middle" x="1003.2447" y="-301.8" font-family="Times,serif" font-size="14.00" fill="#000000">var.username</text>
</g>
<!-- [root] azurerm_virtual_machine.test (expand)&#45;&gt;[root] var.username -->
<g id="edge15" class="edge">
<title>[root] azurerm_virtual_machine.test (expand)-&gt;[root] var.username</title>
<path fill="none" stroke="#000000" d="M706.5137,-361.4728C709.4575,-360.9713 712.3738,-360.4791 715.2447,-360 815.8907,-343.2027 845.2065,-348.3809 947.9004,-324.1298"/>
<polygon fill="#000000" stroke="#000000" points="948.8291,-327.5064 957.7372,-321.7709 947.1967,-320.6994 948.8291,-327.5064"/>
</g>
<!-- [root] azurerm_virtual_machine.test2 (expand) -->
<g id="node11" class="node">
<title>[root] azurerm_virtual_machine.test2 (expand)</title>
<polygon fill="none" stroke="#000000" points="914.0128,-396 724.4765,-396 724.4765,-360 914.0128,-360 914.0128,-396"/>
<text text-anchor="middle" x="819.2447" y="-373.8" font-family="Times,serif" font-size="14.00" fill="#000000">azurerm_virtual_machine.test2</text>
</g>
<!-- [root] azurerm_virtual_machine.test2 (expand)&#45;&gt;[root] azurerm_network_interface.test2 (expand) -->
<g id="edge16" class="edge">
<title>[root] azurerm_virtual_machine.test2 (expand)-&gt;[root] azurerm_network_interface.test2 (expand)</title>
<path fill="none" stroke="#000000" d="M744.6824,-359.9243C702.6771,-349.7412 650.0752,-336.9892 606.5713,-326.4428"/>
<polygon fill="#000000" stroke="#000000" points="607.1231,-322.9753 596.58,-324.0207 605.4739,-329.7782 607.1231,-322.9753"/>
</g>
<!-- [root] azurerm_virtual_machine.test2 (expand)&#45;&gt;[root] azurerm_storage_container.test (expand) -->
<g id="edge17" class="edge">
<title>[root] azurerm_virtual_machine.test2 (expand)-&gt;[root] azurerm_storage_container.test (expand)</title>
<path fill="none" stroke="#000000" d="M825.5532,-359.8314C828.2564,-352.0463 831.4763,-342.7729 834.4757,-334.1347"/>
<polygon fill="#000000" stroke="#000000" points="837.8774,-335.0081 837.8512,-324.4133 831.2646,-332.7119 837.8774,-335.0081"/>
</g>
<!-- [root] azurerm_virtual_machine.test2 (expand)&#45;&gt;[root] var.password -->
<g id="edge18" class="edge">
<title>[root] azurerm_virtual_machine.test2 (expand)-&gt;[root] var.password</title>
<path fill="none" stroke="#000000" d="M785.4308,-359.8314C767.974,-350.4516 746.496,-338.9112 727.9095,-328.9244"/>
<polygon fill="#000000" stroke="#000000" points="729.5133,-325.8129 719.0477,-324.1628 726.2,-331.9792 729.5133,-325.8129"/>
</g>
<!-- [root] azurerm_virtual_machine.test2 (expand)&#45;&gt;[root] var.username -->
<g id="edge19" class="edge">
<title>[root] azurerm_virtual_machine.test2 (expand)-&gt;[root] var.username</title>
<path fill="none" stroke="#000000" d="M865.6757,-359.8314C890.7075,-350.0363 921.7607,-337.885 948.026,-327.6073"/>
<polygon fill="#000000" stroke="#000000" points="949.429,-330.8168 957.466,-323.9134 946.8781,-324.2981 949.429,-330.8168"/>
</g>
<!-- [root] azurerm_virtual_machine.test3 (expand) -->
<g id="node12" class="node">
<title>[root] azurerm_virtual_machine.test3 (expand)</title>
<polygon fill="none" stroke="#000000" points="1122.0128,-396 932.4765,-396 932.4765,-360 1122.0128,-360 1122.0128,-396"/>
<text text-anchor="middle" x="1027.2447" y="-373.8" font-family="Times,serif" font-size="14.00" fill="#000000">azurerm_virtual_machine.test3</text>
</g>
<!-- [root] azurerm_virtual_machine.test3 (expand)&#45;&gt;[root] azurerm_network_interface.test3 (expand) -->
<g id="edge20" class="edge">
<title>[root] azurerm_virtual_machine.test3 (expand)-&gt;[root] azurerm_network_interface.test3 (expand)</title>
<path fill="none" stroke="#000000" d="M1062.5726,-359.8314C1080.894,-350.4089 1103.4548,-338.8062 1122.9342,-328.7883"/>
<polygon fill="#000000" stroke="#000000" points="1124.6359,-331.8489 1131.9281,-324.1628 1121.4345,-325.6239 1124.6359,-331.8489"/>
</g>
<!-- [root] azurerm_virtual_machine.test3 (expand)&#45;&gt;[root] azurerm_storage_container.test (expand) -->
<g id="edge21" class="edge">
<title>[root] azurerm_virtual_machine.test3 (expand)-&gt;[root] azurerm_storage_container.test (expand)</title>
<path fill="none" stroke="#000000" d="M981.0661,-359.8314C956.2646,-350.0734 925.5197,-337.977 899.4604,-327.7242"/>
<polygon fill="#000000" stroke="#000000" points="900.6784,-324.4423 890.0912,-324.038 898.1155,-330.9563 900.6784,-324.4423"/>
</g>
<!-- [root] azurerm_virtual_machine.test3 (expand)&#45;&gt;[root] var.password -->
<g id="edge22" class="edge">
<title>[root] azurerm_virtual_machine.test3 (expand)-&gt;[root] var.password</title>
<path fill="none" stroke="#000000" d="M932.1573,-360.8368C863.1287,-348.2767 776.8126,-332.3319 740.4495,-324.001"/>
<polygon fill="#000000" stroke="#000000" points="741.0277,-320.5397 730.4838,-321.5776 739.3737,-327.3415 741.0277,-320.5397"/>
</g>
<!-- [root] azurerm_virtual_machine.test3 (expand)&#45;&gt;[root] var.username -->
<g id="edge23" class="edge">
<title>[root] azurerm_virtual_machine.test3 (expand)-&gt;[root] var.username</title>
<path fill="none" stroke="#000000" d="M1021.1885,-359.8314C1018.5935,-352.0463 1015.5023,-342.7729 1012.6229,-334.1347"/>
<polygon fill="#000000" stroke="#000000" points="1015.8652,-332.7933 1009.3824,-324.4133 1009.2244,-335.0069 1015.8652,-332.7933"/>
</g>
<!-- [root] azurerm_virtual_network.test (expand)&#45;&gt;[root] azurerm_resource_group.test (expand) -->
<g id="edge24" class="edge">
<title>[root] azurerm_virtual_network.test (expand)-&gt;[root] azurerm_resource_group.test (expand)</title>
<path fill="none" stroke="#000000" d="M580.4789,-143.8314C593.0327,-134.7927 608.373,-123.7476 621.8838,-114.0198"/>
<polygon fill="#000000" stroke="#000000" points="623.9483,-116.8463 630.0185,-108.1628 619.8581,-111.1655 623.9483,-116.8463"/>
</g>
<!-- [root] provider[&quot;registry.terraform.io/hashicorp/azurerm&quot;] (close) -->
<g id="node19" class="node">
<title>[root] provider["registry.terraform.io/hashicorp/azurerm"] (close)</title>
<ellipse fill="none" stroke="#000000" cx="819.2447" cy="-450" rx="263.9501" ry="18"/>
<text text-anchor="middle" x="819.2447" y="-445.8" font-family="Times,serif" font-size="14.00" fill="#000000">[root] provider["registry.terraform.io/hashicorp/azurerm"] (close)</text>
</g>
<!-- [root] provider[&quot;registry.terraform.io/hashicorp/azurerm&quot;] (close)&#45;&gt;[root] azurerm_virtual_machine.test (expand) -->
<g id="edge25" class="edge">
<title>[root] provider["registry.terraform.io/hashicorp/azurerm"] (close)-&gt;[root] azurerm_virtual_machine.test (expand)</title>
<path fill="none" stroke="#000000" d="M769.0794,-432.2946C740.8694,-422.3381 705.455,-409.8389 675.7187,-399.3438"/>
<polygon fill="#000000" stroke="#000000" points="676.8747,-396.0402 666.2799,-396.0124 674.5449,-402.6412 676.8747,-396.0402"/>
</g>
<!-- [root] provider[&quot;registry.terraform.io/hashicorp/azurerm&quot;] (close)&#45;&gt;[root] azurerm_virtual_machine.test2 (expand) -->
<g id="edge26" class="edge">
<title>[root] provider["registry.terraform.io/hashicorp/azurerm"] (close)-&gt;[root] azurerm_virtual_machine.test2 (expand)</title>
<path fill="none" stroke="#000000" d="M819.2447,-431.8314C819.2447,-424.131 819.2447,-414.9743 819.2447,-406.4166"/>
<polygon fill="#000000" stroke="#000000" points="822.7448,-406.4132 819.2447,-396.4133 815.7448,-406.4133 822.7448,-406.4132"/>
</g>
<!-- [root] provider[&quot;registry.terraform.io/hashicorp/azurerm&quot;] (close)&#45;&gt;[root] azurerm_virtual_machine.test3 (expand) -->
<g id="edge27" class="edge">
<title>[root] provider["registry.terraform.io/hashicorp/azurerm"] (close)-&gt;[root] azurerm_virtual_machine.test3 (expand)</title>
<path fill="none" stroke="#000000" d="M870.3936,-432.2946C899.1567,-422.3381 935.2655,-409.8389 965.5849,-399.3438"/>
<polygon fill="#000000" stroke="#000000" points="966.9038,-402.5911 975.2088,-396.0124 964.614,-395.9762 966.9038,-402.5911"/>
</g>
<!-- [root] root -->
<g id="node20" class="node">
<title>[root] root</title>
<ellipse fill="none" stroke="#000000" cx="819.2447" cy="-522" rx="50.9823" ry="18"/>
<text text-anchor="middle" x="819.2447" y="-517.8" font-family="Times,serif" font-size="14.00" fill="#000000">[root] root</text>
</g>
<!-- [root] root&#45;&gt;[root] provider[&quot;registry.terraform.io/hashicorp/azurerm&quot;] (close) -->
<g id="edge28" class="edge">
<title>[root] root-&gt;[root] provider["registry.terraform.io/hashicorp/azurerm"] (close)</title>
<path fill="none" stroke="#000000" d="M819.2447,-503.8314C819.2447,-496.131 819.2447,-486.9743 819.2447,-478.4166"/>
<polygon fill="#000000" stroke="#000000" points="822.7448,-478.4132 819.2447,-468.4133 815.7448,-478.4133 822.7448,-478.4132"/>
</g>
</g>
</svg>